<?xml version="1.0" encoding="utf-8"?>
<!-- Generator: Adobe Illustrator 19.2.1, SVG Export Plug-In . SVG Version: 6.00 Build 0)  -->
<svg version="1.1" id="Layer_1" xmlns="http://www.w3.org/2000/svg" xmlns:xlink="http://www.w3.org/1999/xlink" x="0px" y="0px"
	 viewBox="16 11 125 42" style="enable-background:new 0 0 159.4 66.2;" xml:space="preserve">
<style type="text/css">
	.st0{clip-path:url(#SVGID_2_);fill:#FFFFFF;}
	.st1{fill:#FFFFFF;}
</style>
<g>
	<defs>
		<path id="SVGID_1_" d="M35.5,39.5L35.5,39.5L35.5,39.5z"/>
	</defs>
	<use xlink:href="#SVGID_1_"  style="overflow:visible;fill:#FFFFFF;"/>
	<clipPath id="SVGID_2_">
		<use xlink:href="#SVGID_1_"  style="overflow:visible;"/>
	</clipPath>
	<rect x="35.5" y="39.5" transform="matrix(0.6836 -0.7299 0.7299 0.6836 -17.5832 38.3694)" class="st0" width="0" height="0"/>
</g>
<g>
	<defs>
		<path id="SVGID_3_" d="M32.2,24.7c-0.4-0.2-0.9-0.2-1.3-0.2c-2.2,0-3.9,1.8-3.9,4c0,0.2,0,0.5,0.1,0.7c-2.1,0.4-3.7,2.2-3.7,4.4
			c0,2.5,2,4.5,4.4,4.5h3.4l-3.8-4.5c-0.5-0.5-0.5-1.3-0.1-1.9c0.4-0.6,1.1-0.8,1.8-0.6l0.1,0.1l4.2,2.3l10-10.1
			c-1.3-1.3-3.1-2.1-5.1-2.1C35.7,21.4,33.4,22.7,32.2,24.7"/>
	</defs>
	<use xlink:href="#SVGID_3_"  style="overflow:visible;fill:#FFFFFF;"/>
	<clipPath id="SVGID_4_">
		<use xlink:href="#SVGID_3_"  style="overflow:visible;"/>
	</clipPath>
</g>
<g>
	<defs>
		<path id="SVGID_5_" d="M35.9,38.2h8.4c2.4,0,4.4-2,4.4-4.5c0-2.1-1.4-3.9-3.3-4.4c0-0.2,0-0.4,0-0.6c0-0.8-0.1-1.6-0.4-2.3
			L35.9,38.2z"/>
	</defs>
	<use xlink:href="#SVGID_5_"  style="overflow:visible;fill:#FFFFFF;"/>
	<clipPath id="SVGID_6_">
		<use xlink:href="#SVGID_5_"  style="overflow:visible;"/>
	</clipPath>
</g>
<g>
	<path class="st1" d="M33.5,39.2L33.5,39.2L33.5,39.2z M45.5,23.4c-0.3-0.3-0.8-0.3-1.1,0L33.7,34.1c-0.2,0.2-0.6,0.3-0.9,0.1
		l-4.2-2.3c-0.4-0.1-0.8,0-1,0.3c-0.2,0.3-0.2,0.7,0,1l5.1,6c0.2,0.2,0.4,0.3,0.6,0.3l0.1,0c0.2,0,0.4-0.1,0.6-0.3l11.4-14.7
		C45.9,24.1,45.8,23.6,45.5,23.4"/>
	<path class="st1" d="M76.4,27.5c-0.2-1.1-1.1-2.8-3.6-2.8c-1.9,0-3.1,1.2-3.1,2.5c0,1.1,0.7,2,2.2,2.3l2.8,0.5
		c3.6,0.7,5.6,3.1,5.6,5.9c0,3.1-2.6,6.2-7.2,6.2c-5.3,0-7.6-3.4-7.9-6.3l3.6-1c0.2,2,1.5,3.7,4.4,3.7c2.1,0,3.2-1,3.2-2.5
		c0-1.2-0.9-2.1-2.4-2.4L71,33.2c-3.2-0.6-5.2-2.7-5.2-5.7c0-3.5,3.2-6.3,7-6.3c4.8,0,6.7,2.9,7.2,5.2L76.4,27.5z"/>
	<path class="st1" d="M81.6,41.6V27.7h3.6v1.7c0.8-1.4,2.5-2.1,4.1-2.1c1.9,0,3.4,0.8,4.1,2.3c1.1-1.7,2.6-2.3,4.4-2.3
		c2.6,0,5,1.5,5,5.3v9h-3.6v-8.2c0-1.5-0.7-2.6-2.4-2.6c-1.6,0-2.6,1.2-2.6,2.7v8.1h-3.7v-8.2c0-1.5-0.8-2.6-2.5-2.6
		c-1.6,0-2.6,1.2-2.6,2.7v8.1H81.6z"/>
	<path class="st1" d="M113.6,36v-0.6l-3.1,0.5c-1,0.1-1.7,0.7-1.7,1.7c0,0.8,0.6,1.6,1.8,1.6C112.1,39.2,113.6,38.4,113.6,36
		 M109.1,33.6l3.4-0.5c0.8-0.1,1-0.5,1-1c0-1-0.8-1.8-2.3-1.8c-1.6,0-2.5,1-2.6,2.3l-3.3-0.7c0.2-2.2,2.2-4.6,5.9-4.6
		c4.4,0,6,2.5,6,5.3v6.8c0,0.7,0.1,1.7,0.2,2.2H114c-0.1-0.4-0.1-1.1-0.1-1.7c-0.7,1.1-2,2.1-4.1,2.1c-3,0-4.8-2-4.8-4.2
		C105,35.3,106.8,34,109.1,33.6"/>
	<path class="st1" d="M127.6,31.1c-0.5,0-0.8,0-1.2,0c-1.9,0-3.5,1.2-3.5,4.2v6.3h-3.7V27.7h3.6v2.1c0.8-1.8,2.7-2,3.9-2h0.9V31.1z"
		/>
	<path class="st1" d="M135.2,27.7h2.8v3.3h-2.8v5.8c0,1.2,0.6,1.6,1.6,1.6c0.5,0,1-0.1,1.2-0.1v3.1c-0.3,0.1-1,0.3-2.1,0.3
		c-2.7,0-4.4-1.6-4.4-4.3v-6.4H129v-3.3h0.7c1.5,0,2.1-1,2.1-2.2v-1.9h3.4V27.7z"/>
</g>
<path class="st1" d="M36,13.5c10,0,18.1,8.1,18.1,18.1c0,10-8.1,18.1-18.1,18.1s-18.1-8.1-18.1-18.1C17.9,21.6,26,13.5,36,13.5
	 M36,11.3c-11.2,0-20.3,9.1-20.3,20.3C15.7,42.9,24.8,52,36,52c11.2,0,20.3-9.1,20.3-20.3C56.3,20.4,47.2,11.3,36,11.3L36,11.3z"/>
</svg>
